<svg xmlns="http://www.w3.org/2000/svg" xmlns:xlink="http://www.w3.org/1999/xlink" id="Layer_1" x="0px" y="0px" viewBox="0 0 1155.1 307.9" style="enable-background:new 0 0 1155.1 307.9;" xml:space="preserve"><style type="text/css">	.st0{fill:#0E76B9;}</style><path class="st0" d="M190.6,137.9c-15-0.1-30,0-44.9,0c-14.6,0-29.2-0.1-43.8,0.1c-3.1,0-3.6-0.9-3.6-3.7c0.2-8.7,0.1-17.4,0-26.1 c0-2.2,0.2-3.2,2.9-3.2c29.8,0.1,59.7,0.1,89.5,0c2.9,0,3.6,0.9,3.6,3.7c-0.1,8.6-0.1,17.2,0,25.8 C194.4,137.2,193.3,137.9,190.6,137.9z"></path><path class="st0" d="M248.1,209.5c-6.3,17.6-12.6,35.1-19.2,53.5L176,152.8c6.2,0,12-0.3,17.8,0.1c13.2,0.9,26.7-10.2,29.7-23.4 C228.4,108.2,212.7,90,192,90c-30.5,0.1-60.9,0-91.4,0.1c-2.9,0-3.7-0.7-3.7-3.6c0.2-12.2,0.2-24.4,0-36.6c0-2.7,0.8-3.2,3.3-3.2 c33.5,0.1,66.9-0.4,100.4,0.3c12.6,0.2,24.2,5.5,34.6,12.7c18.1,12.6,29.5,29.9,32.2,51.7c3.7,28.9-6.7,52.6-29.8,70.7 c-2,1.5-1.6,2.4-0.8,4c3.5,6.4,6.9,12.9,10.4,19.3C248.1,206.6,248.6,207.9,248.1,209.5z"></path><path class="st0" d="M369,210.3c1.1,2.9,0.2,3-2.2,3c-18.6-0.1-37.2,0.1-55.8-0.1c-2.9,0-4.1,0.9-5,3.5c-5,15-10.1,29.9-15.2,44.8 c-0.8,2.4-1.9,3.4-4.7,3.4c-13.1-0.2-26.2-0.2-39.3,0c-3.2,0-3.4-0.7-2.4-3.5c18.1-49.7,36.2-99.3,54.2-149 c4.8-13.1,9.6-26.2,14.7-40.2l11.4,25.9c3.8,8.5,7.4,16.9,11.3,25.3c1,1.9,1.1,4.1,0.3,6.1c-4.5,12.6-8.7,25.3-13.2,37.9 c-0.9,2.6-0.7,3.4,2.2,3.3c7.6-0.2,15.2,0.1,22.8-0.2c3-0.1,4.1,1,5.2,3.6C358.5,186.3,364.1,198.1,369,210.3z"></path><path class="st0" d="M587.7,124.8c-2.8-12.2-15.6-25-33.6-23.6c-12.7,1-25.2,10.8-28.2,24.2c-0.3,1.5-0.4,2.9-0.3,4.4 c0,34.4,0,68.7-0.2,103.1c-0.1,14.2-11.2,26.2-24.1,29.6c-4,1-8,1.5-12.1,1.5c-21.9,0-43.7,0-65.6,0c-6,0-11.9-1.3-17.8-0.6 c-2.4,0.2-2.6-1.5-3.1-2.9c-7.8-20-15.5-40-23.3-60.1C359.9,149.7,340.3,99,320.7,48.4c-0.3-0.8-0.5-1.6-0.5-2.5l-0.7-0.8 c0.4,0.2,0.7,0.5,1,0.8c0.1,0.1,0.3,0.3,0.4,0.4c0,0,0,0.1,0,0.1c6.3,15.4,12.2,31,18.1,46.5c10.3,26.6,20.6,53.2,30.9,79.8 c10.8,27.9,21.6,55.7,32.3,83.6c2.3,5.9,2.3,5.6,8.6,6c24.8,1.4,49.7,0.3,74.5,0.7c4.2,0,8.5-0.3,12.7-1 c15.2-2.4,26.3-15.4,26.4-30.7c0-33,0.3-66-0.1-99c-0.2-14.7,10.9-27.1,22.9-30.8c13.3-4,27.7,0.7,36,11.8 c4.2,5.5,6.4,12.2,6.2,19.1c-0.2,7.6,0,15.1,0,23.4c5.1-6.7,9.6-13.1,14.2-19.3c6.8-9.2,13.4-18.6,20.3-27.8 c1.9-2.5,1.9-4.7,0.5-7.5c-11.9-23.8-31-38.3-57.4-41.8c-31-4.1-59,9.5-74.6,36.1c-7.4,12.5-11.2,26.8-11,41.3 c0.2,24.9,0.1,49.8,0,74.7c0,8-3.5,11.6-11.6,11.7c-10.4,0.1-20.7-0.1-31.1,0.1c-3.8,0.1-5.8-1.4-7.2-5 c-17.8-44.7-36-89.3-53.9-134.1c-4.4-11-8.8-22-13.2-33c-0.6-1.6-1.5-3.1-1.5-4.9c0,0,0-0.1,0-0.1c0-0.1,0-0.2,0.1-0.3 c0.1-0.3,0.3-0.6,0.5-0.8l-0.1,0.8c16.8,42,33.7,83.9,50.5,125.9c6.4,15.9,12.9,31.7,19.2,47.7c0.8,2,1.6,2.8,3.9,2.7 c11.1-0.1,22.2-0.1,33.3-0.1c6.9,0,10.1-3.2,10.1-10.2c0-25.5-0.1-51,0-76.6c0.1-22.9,8.4-42.5,25.2-58.2 c10.9-10.2,24.7-16.8,39.5-18.8c25.7-3.5,47.7,3.8,66.1,21.9c6.6,6.6,11.8,14.5,15.3,23.2c0.5,1.3,0.7,2.1-0.2,3.3 c-12.4,17-24.8,34-37.8,51.8c0-5.3,0.1-9.7,0-14C588.6,138.1,589.2,131.4,587.7,124.8z"></path><path class="st0" d="M634.5,197.6c-1.3,1.8-2,3.9-1.9,6.1c0.1,18.9,0,37.8,0.2,56.7c0,3.2-0.9,3.8-3.9,3.7 c-12.2-0.2-24.5-0.1-36.7,0c-2.6,0-3.6-0.4-3.6-3.4c0.1-23.5,0.1-47,0-70.6c0-3.4,2-5.5,3.7-7.8c18.5-25.6,37-51.2,55.8-76.6 c14.4-19.5,29.2-38.7,43.8-58.1c0.8-1,1.2-1.8,2.8-1.8c16.9,0.1,33.9,0,51.5,0c-4.5,6.1-8.7,11.8-13,17.5 c-17.8,23.9-35.7,47.7-53.4,71.7C664.5,155.9,649.6,176.8,634.5,197.6z"></path><path class="st0" d="M678.9,162.2c25.1,34,50.1,68,75.1,101.9c-0.8,1.2-1.9,0.7-2.7,0.7c-16.8,0-33.7,0-50.5,0.1 c-2,0.1-3.9-0.9-4.9-2.6c-14.6-19.8-29.2-39.6-44-59.3c-1.8-2.4-0.1-3.4,0.8-4.6C661.2,186.4,670,174.5,678.9,162.2z"></path><path class="st0" d="M1056,131.9c-1.6,6.4-2.7,12.8-5.2,19c-8.2,19.9-22.3,33.8-41.9,42.4c-1.3,0.5-2.6,0.7-4,0.6 c-16.1,0-32.2,0-48.3,0.1c-2.5,0-3.4-0.4-3.3-3.2c0.2-10.8,0.2-21.7,0-32.5c-0.1-3.1,1-3.4,3.6-3.3c7.2,0.1,14.5,0.1,21.7,0 c16.8,0,30.8-11.3,33.1-27.8c2.3-16.8-8.3-31.6-24.7-35.7c-2.7-0.6-5.4-0.8-8.1-0.8c-16,0-32,0.1-47.9-0.1c-3.2,0-3.8,0.9-3.8,3.9 c0.1,32.6,0.1,65.2,0,97.8c-0.1,15.8-5.7,29.9-15.2,42.3c-12,15.8-28,25.9-47.6,29.1c-22.8,3.8-43.8-1.3-62-16.2 c-17.3-14.4-27.5-35.6-28-58.1c-0.1-19.4-0.1-38.8,0-58.2c0-2.6-0.5-3.4-3.2-3.3c-3.8,0.3-7.6,0.1-12.2,0.1c7-7,13.5-13.4,20-19.9 c5.1-5.1,10.3-10.2,15.4-15.3c1-1,1.7-1.9,3.2-0.4c11.7,11.7,23.4,23.3,35.8,35.6c-4.5,0-8.1,0.1-11.8,0c-2-0.1-2.8,0.3-2.8,2.6 c0,19.9-0.6,39.8,0.1,59.7c0.6,17.2,15.1,29.9,30.8,30.5c16.1,0.6,29.8-10.2,33.3-26.3c0.6-2.8,0.1-5.9,0.1-8.9 c0-45.2,0-90.4-0.1-135.6c0-2.6,0.4-3.5,3.4-3.5c33.6,0.1,67.2-0.4,100.8,0.3c13.5,0.3,25.9,5.9,37,13.8 c16.9,11.9,26.9,28.3,31.2,48.4c0.3,1.4-0.7,3,0.8,4.1c-2.2-0.5-1.8-2.4-2-3.9c-4.1-21.3-15.3-38-33.6-49.6 c-12.1-7.7-25.2-12.2-39.9-12c-30.2,0.2-60.4,0.1-90.7,0.1c-5.8,0-5.8,0-5.8,5.8c0,44.9-0.2,89.9,0.1,134.8 c0.1,12.9-8.5,27.3-22.6,31.9c-13.9,4.5-29.1-0.4-37.7-12.2c-4.1-5.7-6.4-12.6-6.4-19.6c-0.2-18.7-0.1-37.3,0-56 c0-4.7,0.8-5.3,5.5-5.4c2.1,0.1,4.2,0,6.3-0.1c0.1,0,0.2-0.2,0.3-0.3c-0.1-1-0.9-1.4-1.5-2c-9.5-9.5-19.1-19-28.6-28.5 c-3.3-3.2-3.7-3.2-6.9,0c-9.6,9.6-19.3,19.2-28.9,28.8c-0.7,0.5-1.2,1.2-1.5,2c2,0.1,3.9,0.2,5.9,0.1c6.9,0,7.2,0.3,7.2,7.1 c0,18.3-0.2,36.6,0.1,54.9c0.3,20.1,7.3,37.8,21.5,52.3c27.2,27.8,71.5,30.5,101.5,5.8c18-14.8,27.7-33.9,27.7-57.6 c-0.1-30.4,0-60.7,0-91.1c0-1.4,0-2.7,0-4.1c0.2-3.6,0.9-4.5,4.5-4.5c17.2-0.1,34.5-0.4,51.7,0.1c15.3,0.5,29.5,14.6,30.5,29.5 c1.2,17.5-9.8,32.5-26.3,35.8c-6.7,1.3-13.4,0.9-20.2,1c-2.6,0-5.3,0.1-7.9,0c-3.1-0.2-4.2,1.2-4.1,4.2c0.1,9.5,0.1,18.9,0,28.4 c0,3,0.9,4.2,4.1,4.2c15.2-0.1,30.5,0,45.7-0.1c2.9-0.1,5.7-0.9,8.2-2.3c22.9-11.8,37-30.1,41.8-55.5 C1054.4,133.8,1054,132.1,1056,131.9z"></path><path class="st0" d="M1056,113.2v18.7c-1.6,6.4-2.7,12.8-5.2,19c-8.2,19.9-22.3,33.8-41.9,42.4c-1.3,0.5-2.6,0.7-4,0.6 c-16.1,0-32.2,0-48.3,0.1c-2.5,0-3.4-0.4-3.3-3.2c0.2-10.8,0.2-21.7,0-32.5c-0.1-3.1,1-3.4,3.6-3.3c7.2,0.1,14.5,0.1,21.7,0 c16.8,0,30.8-11.3,33.1-27.8c2.3-16.8-8.3-31.6-24.7-35.7c-2.7-0.6-5.4-0.8-8.1-0.8c-16,0-32,0.1-47.9-0.1c-3.2,0-3.8,0.9-3.8,3.9 c0.1,32.6,0.1,65.2,0,97.8c-0.1,15.8-5.7,29.9-15.2,42.3c-12,15.8-28,25.9-47.6,29.1c-22.8,3.8-43.8-1.3-62-16.2 c-17.3-14.4-27.5-35.6-28-58.1c-0.1-19.4-0.1-38.8,0-58.2c0-2.6-0.5-3.4-3.2-3.3c-3.8,0.3-7.6,0.1-12.2,0.1c7-7,13.5-13.4,20-19.9 c5.1-5.1,10.3-10.2,15.4-15.3c1-1,1.7-1.9,3.2-0.4c11.7,11.7,23.4,23.3,35.8,35.6c-4.5,0-8.1,0.1-11.8,0c-2-0.1-2.8,0.3-2.8,2.6 c0,19.9-0.6,39.8,0.1,59.7c0.6,17.2,15.1,29.9,30.8,30.5c16.1,0.6,29.8-10.2,33.3-26.3c0.6-2.8,0.1-5.9,0.1-8.9 c0-45.2,0-90.4-0.1-135.6c0-2.6,0.4-3.5,3.4-3.5c33.6,0.1,67.2-0.4,100.8,0.3c13.5,0.3,25.9,5.9,37,13.8 c16.9,11.9,26.9,28.3,31.2,48.4C1055.4,110.4,1054.5,112.1,1056,113.2z"></path><path class="st0" d="M363.6,45.2l-0.1,0.8c-0.1,0.1-0.3,0.3-0.5,0.4c-1,0.6-2.2,0.8-3.4,0.7c-11.8,0.1-23.5,0.1-35.3,0 c-1.2,0.1-2.4-0.1-3.4-0.7c-0.3-0.2-0.5-0.3-0.8-0.5l-0.7-0.8L363.6,45.2z"></path><path class="st0" d="M626.5,107c-12.4,17-24.8,34-37.8,51.8c0-5.3,0.1-9.7,0-14c-0.1-6.7,0.5-13.4-1-20c-2.8-12.2-15.6-25-33.6-23.6 c-12.7,1-25.2,10.8-28.2,24.2c-0.3,1.5-0.4,2.9-0.3,4.4c0,34.4,0,68.7-0.2,103.1c-0.1,14.2-11.2,26.2-24.1,29.6c-4,1-8,1.5-12.1,1.5 c-21.9,0-43.7,0-65.6,0c-6,0-11.9-1.3-17.8-0.6c-2.4,0.2-2.6-1.5-3.1-2.9c-7.8-20-15.5-40-23.3-60.1 c-19.6-50.7-39.2-101.3-58.8-151.9c-0.3-0.8-0.5-1.6-0.5-2.5h0.3l42.7,0.1h0.4C380.4,88,397.2,130,414,171.9 c6.4,15.9,12.9,31.7,19.2,47.7c0.8,2,1.6,2.8,3.9,2.7c11.1-0.1,22.2-0.1,33.3-0.1c6.9,0,10.1-3.2,10.1-10.2c0-25.5-0.1-51,0-76.6 c0.1-22.9,8.4-42.5,25.2-58.2c10.9-10.2,24.7-16.8,39.5-18.8c25.7-3.5,47.7,3.8,66.1,21.9c6.6,6.6,11.8,14.5,15.3,23.2 C627.2,105,627.4,105.8,626.5,107z"></path><path class="st0" d="M247.4,205.3c0.7,1.3,1.3,2.6,0.7,4.2c-6.3,17.6-12.6,35.1-19.2,53.5L176,152.8c6.2,0,12-0.3,17.8,0.1 c13.2,0.9,26.7-10.2,29.7-23.4C228.4,108.2,212.7,90,192,90c-30.5,0.1-60.9,0-91.4,0.1c-2.9,0-3.7-0.7-3.7-3.6 c0.2-12.2,0.2-24.4,0-36.6c0-2.7,0.8-3.2,3.3-3.2c33.5,0.1,66.9-0.4,100.4,0.3c12.6,0.2,24.2,5.5,34.6,12.7 c18.1,12.6,29.5,29.9,32.2,51.7c3.7,28.9-6.7,52.6-29.8,70.7c-2,1.5-1.6,2.4-0.8,4C240.5,192.4,243.9,198.9,247.4,205.3z"></path><path class="st0" d="M746.1,46c-4.5,6.1-8.7,11.8-13,17.5c-17.8,23.9-35.7,47.7-53.4,71.7c-15.2,20.7-30.2,41.6-45.2,62.4 c-1.3,1.8-2,3.9-1.9,6.1c0.1,18.9,0,37.8,0.2,56.7c0,3.2-0.9,3.8-3.9,3.7c-12.2-0.2-24.5-0.1-36.7,0c-2.6,0-3.6-0.4-3.6-3.4 c0.1-23.5,0.1-47,0-70.6c0-3.4,2-5.5,3.7-7.8c18.5-25.6,37-51.2,55.8-76.6c14.4-19.5,29.2-38.7,43.8-58.1c0.8-1,1.2-1.8,2.8-1.8 C711.5,46,728.5,46,746.1,46z"></path><path class="st0" d="M366.8,213.3c-18.6-0.1-37.2,0.1-55.8-0.1c-2.9,0-4.1,0.9-5,3.5c-5,15-10.1,29.9-15.2,44.8 c-0.8,2.4-1.9,3.4-4.7,3.4c-13.1-0.2-26.2-0.2-39.3,0c-3.2,0-3.4-0.7-2.4-3.5c18.1-49.7,36.2-99.3,54.2-149 c4.8-13.1,9.6-26.2,14.7-40.2l11.4,25.9c3.8,8.5,7.4,16.9,11.3,25.3c1,1.9,1.1,4.1,0.3,6.1c-4.5,12.6-8.7,25.3-13.2,37.9 c-0.9,2.6-0.7,3.4,2.2,3.3c7.6-0.2,15.2,0.1,22.8-0.2c3-0.1,4.1,1,5.2,3.6c5,12.1,10.6,24,15.5,36.2 C370.1,213.2,369.2,213.3,366.8,213.3z"></path><path class="st0" d="M754,264.1c-0.8,1.2-1.9,0.7-2.7,0.7c-16.8,0-33.7,0-50.5,0.1c-2,0.1-3.9-0.9-4.9-2.6 c-14.6-19.8-29.2-39.6-44-59.3c-1.8-2.4-0.1-3.4,0.8-4.6c8.6-12,17.4-23.9,26.3-36.2C704,196.3,729,230.2,754,264.1z"></path><path class="st0" d="M194.4,134.3c0.1,2.9-1,3.6-3.7,3.5c-15-0.1-30,0-44.9,0c-14.6,0-29.2-0.1-43.8,0.1c-3.1,0-3.6-0.9-3.6-3.7 c0.2-8.7,0.1-17.4,0-26.1c0-2.2,0.2-3.2,2.9-3.2c29.8,0.1,59.7,0.1,89.5,0c2.9,0,3.6,0.9,3.6,3.7 C194.2,117.2,194.2,125.7,194.4,134.3z"></path></svg>